<?xml version="1.0" encoding="utf-8"?>
<!-- Generator: Adobe Illustrator 16.0.0, SVG Export Plug-In . SVG Version: 6.00 Build 0)  -->
<!DOCTYPE svg PUBLIC "-//W3C//DTD SVG 1.1//EN" "http://www.w3.org/Graphics/SVG/1.1/DTD/svg11.dtd">
<svg version="1.1" id="圖層_1" xmlns="http://www.w3.org/2000/svg" xmlns:xlink="http://www.w3.org/1999/xlink" x="0px" y="0px"
	 width="1024px" height="1024px" viewBox="0 0 1024 1024" enable-background="new 0 0 1024 1024" xml:space="preserve">
<path fill="#202020" d="M675.884,170.243c10.862-9.386,23.015-17.432,35.177-24.993l42.028-23.67
	c2.951,8.12,4.711,16.477,6.447,24.92c4.861,23.645,7.038,47.307,7.258,71.423l-0.414,29.633
	c13.275,13.471,24.543,29.648,34.272,45.812c21.3,35.385,36.265,72.799,44.907,113.242c15.493,72.505,7.946,150.591-21.792,218.628
	c-8.372,19.155-18.63,37.11-29.987,54.628c3.855,1.101,9.699,0.396,13.857,0.428l38.605,0.096c3.393,0.006,8.28-0.592,11.501,0.239
	l-49.293,96.178l46.021,89.476c-2.181,1.037-107.145,0.403-120.439,0.333l-0.094,5.323c-0.657,10.927-4.722,20.782-13.195,27.99
	c-5.719,4.863-13.134,8.137-20.615,8.895c-6.788,0.688-13.851,0.354-20.669,0.333l-33.124-0.1l-108.937-0.061l-141.063-0.049
	l-46.375-0.046c-8.964-0.015-18.084,0.297-27.027-0.346c-10.164-0.73-18.912-5.159-25.473-12.968
	c-7.275-8.659-8.853-18.706-7.906-29.603l-122.96,0.383l12.819-23.984l26.712-49.931l6.442-11.93
	c0.346-0.642,1.887-2.958,1.919-3.556c0.033-0.604-7.425-13.278-8.215-14.742l-29.234-55.275l-10.092-19.485
	c-0.917-1.813-2.997-4.935-3.157-6.854h67.645c-9.963-15.176-19.284-30.689-27.053-47.123c-14.47-30.604-23.967-63.43-29.614-96.736
	c-13.47-79.445,3.348-167.189,45.079-236.088c7.529-12.431,15.723-24.684,24.643-36.162c4.397-5.659,9.813-10.92,13.858-16.762
	l0.427-0.627c-1.215-10.828-1.233-21.793-1.157-32.677c0.217-31.485,3.924-62.125,13.454-92.231
	c3.157,0.288,7.757,3.298,10.677,4.795c16.009,8.205,30.949,17.35,45.455,27.993c6.444,4.728,13.031,9.566,18.882,15.014
	c21.028-9.184,41.269-18.553,63.341-25.256c73.349-22.272,156.574-20.051,228.055,8.004L675.884,170.243z"/>
<path fill="#FEFEFE" d="M731.528,547.642c0.566-1.195,1.213-2.038,2.041-3.054c6.096,5.381,12.11,11.725,15.024,19.479
	C743.429,557.806,737.802,552.723,731.528,547.642z"/>
<path fill="#4D4D4D" d="M718.986,538.477c0.23-1.572,0.041-2.85,1.264-3.916l2.257,1.179l7.58,5.881l3.482,2.968
	c-0.828,1.016-1.475,1.858-2.041,3.054c-0.444,0.03-1.955-1.168-2.414-1.468L718.986,538.477z"/>
<path fill="#4D4D4D" d="M724.673,505.756l-0.461-0.307l-0.712-0.493c-2.203-1.508-4.201-3.397-5.574-5.706l0.324-1.102
	c1.695-0.746,2.39-0.26,4.149,0.188c3.334,1.073,7.716,2.008,10.584,3.978l-4.233,2.481c0.489,0.661,0.856,1.098,1.489,1.645
	C728.195,506.852,726.647,506.311,724.673,505.756z"/>
<path fill="#FEFEFE" d="M291.006,539.75c0.781-0.118,0.33-0.138,1.321,0.305l0.581,1.695c-7.505,6.401-13.799,13.78-20.158,21.272
	l-1.095,0.84c0.457-2.317,2.213-4.447,3.511-6.384C279.668,550.766,284.662,544.796,291.006,539.75z"/>
<path fill="#FEFEFE" d="M307.31,503.707l20.847,0.114l-17.271,2.678c-2.907,0.498-15.004,3.571-16.863,3.001l-1.159-4.327
	L307.31,503.707z"/>
<path fill="#6C7879" d="M313.826,509.324c-0.245,1.486-1.645,2.449-2.689,3.452c-3.496,3.359-7.279,6.164-10.918,9.33
	c-0.602,0.524-1.264,0.759-1.252,1.612c0.018,1.149,0.02,2.05-0.374,3.153c-1.656-3.801-2.788-8.288-3.731-12.334
	c1.659-1.092,3.983-1.431,5.89-1.937L313.826,509.324z"/>
<path fill="#FEFEFE" d="M294.873,478.25l0.833-0.117c1.756-0.021,4.798,1.231,6.531,1.73c8.459,2.438,16.708,5.527,24.763,9.074
	c4.77,2.101,9.798,4.317,13.899,7.574c-6.187-1.481-12.035-4.022-18.107-5.904l-19.235-5.819c-2.882-0.816-7.123-1.349-9.563-3.038
	L294.873,478.25z"/>
<path fill="#FEFEFE" d="M280.932,507.75l0.863,0.073c0.786,1.35,0.633,2.911,0.669,4.427c-2.838,1.538-6.33,2.302-9.374,3.407
	l-17.416,6.921c-3.908,1.729-9.153,5.919-13.424,5.273c-0.774-0.563-1.14-1.088-1.701-1.852c0.04-0.916,0.114-1.467,0.616-2.268
	C244.93,517.725,273.492,509.731,280.932,507.75z"/>
<path fill="#6C7879" d="M329.259,499.633c-11.768-1.743-24.581-0.28-36.447,0.071c0.03-2.199-0.095-4.545,0.325-6.704
	c0.333-1.706,0.377-3.412,0.467-5.146c3.08-0.025,6.625,1.328,9.637,2.085l29.239,8.351
	C331.402,498.908,330.453,499.286,329.259,499.633z"/>
<path fill="#FEFEFE" d="M725.247,472.469l45.132-1.228l13.654-0.499c2.688-0.111,5.55-0.598,8.006,0.685
	c1.031,1.356,1.005,1.363,0.949,3.073c-0.329,0.324-0.58,0.756-0.988,0.974c-1.302,0.698-44.013,0.184-50,0.204
	c-2.842,0.01-8.874-0.703-11.334,0.315c-1.192-0.349-3.454-1.468-4.54-0.993c-0.887,0.389-1.699,0.247-2.64,0.077
	c-0.889-0.161-1.093-0.079-1.572-0.827c1.297-0.241,1.956-0.707,2.968-1.492L725.247,472.469z"/>
<path fill="#FEFEFE" d="M235.127,469.25l0.717-0.132c3.423-0.411,7.146-0.068,10.588,0.097c9.781,0.467,19.453,1.909,29.096,3.575
	c2.225,0.386,6.726,0.635,8.461,1.96c-0.015,1.71-0.32,3.148-0.739,4.802l-1.287,0.198l-47.713-4.979
	c-1.463-1.222-1.28-1.425-1.544-3.232C233.507,469.966,233.514,469.972,235.127,469.25z"/>
<path fill="#FEFEFE" d="M732.983,502.314c7.105,2.81,14.511,4.234,21.752,6.591c8.728,2.842,16.978,6.587,25.366,10.271
	c3.314,1.455,8.455,2.692,10.227,6.073c-0.152,0.682-0.045,1.122-0.657,1.515c-1.133,0.724-1.778,1.048-3.171,1.088
	c-4.88-1.864-9.41-4.581-14.188-6.698c-13.104-5.806-28.014-11.693-42.072-14.714c-0.633-0.547-1-0.983-1.489-1.645L732.983,502.314
	z"/>
<path fill="#FFD100" d="M569.04,818.045l11.585-0.029l-0.133,63.637l-11.501-0.03L569.04,818.045z"/>
<path fill="#FFD100" d="M392.091,818.244l5.156-0.021l-0.067,51.956l29.438,0.022c0.02,3.249,0.729,8.406-0.368,11.393l-3.125,0.061
	l-37.243-0.108l0.077-63.106L392.091,818.244z"/>
<path fill="#FFD100" d="M388.534,209.649c2.918-0.86,9.945,3.812,12.868,5.408c12.49,6.819,24.14,15.231,35.333,23.977
	c9.867,7.709,19.81,15.962,28.51,24.992l0.191,0.799l-30.259,5.982C422.926,248.044,406.245,228.322,388.534,209.649z"/>
<path fill="#FFD100" d="M558.86,264.818l2.942-3.76c14.445-16.337,33.611-30.08,51.896-41.81c5.476-3.514,13.19-9.117,19.831-9.517
	c-7.929,8.908-16.041,17.615-23.171,27.198c-8.052,10.818-14.915,22.435-22.039,33.866
	C578.518,267.862,568.988,266.148,558.86,264.818z"/>
<path fill="#FFD100" d="M447.42,818.006l37.883,0.025l-0.102,10.918l-26.292-0.085l-0.037,17.97l24.657,0.022l-0.025,9.269
	c-0.003,1.146,0.043,1.078-0.754,1.896l-23.693,0.023l-0.021,23.267l-12.004-0.024L447.42,818.006z"/>
<path fill="#FFD100" d="M604.029,817.947l38.482,0.083l0.015,15.352c-2.944-0.004-10.096,0.819-12.44-0.632l-0.081-3.5
	c-1.722-1.557-11.267-0.722-14.079-0.731l-0.014,42.479l13.338-0.093l0.461-1.654l0.136-8.08l12.561-0.102l-0.053,20.448
	l-38.342-0.021L604.029,817.947z"/>
<path fill="#FFD100" d="M664.861,817.989h39.569l-0.021,10.867l-27.726-0.082l-0.025,16.763l20.351-0.021l0.001,10.959
	c-3.644-0.005-17.482-0.85-19.891,0.534l-0.136,2.366l-0.008,11.071l27.055-0.009l0.015,11.079l-29.529,0.031
	c-2.366,0.002-7.757,0.624-9.714-0.275L664.861,817.989z"/>
<path fill="#FFD100" d="M604.223,276.167c-1.194-0.517-2.264-0.887-3.122-1.917c6.847-11.46,13.975-22.87,22.231-33.381
	c10.449-13.302,22.432-25.8,34.607-37.507c19.363-18.62,39.968-35.401,62.869-49.524c7.976-4.917,15.819-9.733,24.372-13.612
	c8.227,32.11,10.37,65.353,10.22,98.364l-0.667,0.16c-1.504-20.889-3.145-41.304-6.554-62c-1.53-9.292-3.032-18.484-5.874-27.488
	c-17.879,9.369-34.274,21.132-49.97,33.769c-26.9,21.659-50.555,45.661-72.181,72.59
	C614.766,262.331,609.085,269.072,604.223,276.167z"/>
<path fill="#FFD100" d="M270.552,210.415c0.926-23.853,2.472-46.951,9.078-70.047c13.241,6.608,25.479,14.705,37.432,23.382
	c18.545,13.462,35.359,27.989,51.678,44.063c20.238,19.933,40.1,42.11,54.39,66.79l-4.957,1.603l-1.794-2.478
	c-20.892-28.755-44.98-54.485-71.407-78.199c-14.933-13.4-30.537-26.367-47.677-36.874l-9.571-5.66
	c-1.323-0.763-2.991-2.012-4.483-2.249l-5.086,23.311l-3.859,23.453c-0.687,4.121-1.089,8.968-2.992,12.716L270.552,210.415z"/>
<path fill="#FFD100" d="M507.002,817.97l39.136-0.08l-0.063,63.979l-11.093-0.009l-0.02-10.611l0.022-11.182l-15.917,0.02
	l-0.163,21.74l-11.935,0.063L507.002,817.97z"/>
<path fill="#202020" d="M518.659,828.992l16.258-0.001l-0.05,19.996l-16.281,0.036L518.659,828.992z"/>
<path fill="#FFD100" d="M322.035,817.976l40.977-0.009l0.017,63.575l-10.624-0.005l-0.037-12.512l-0.018-9.523l-19.011,0.073
	l-0.114,22.214L322,881.7L322.035,817.976z"/>
<path fill="#202020" d="M333.501,828.548l18.594,0.087l-0.018,19.901l-18.609-0.014L333.501,828.548z"/>
<path fill="#CC4545" d="M291.491,197.88l1.272-16.117c26.499,18.718,48.13,44.136,67.063,70.267
	c9.138,12.613,18.233,26.066,24.628,40.329c-10.236,6.395-19.838,12.718-29.079,20.491c-6.712-18.055-15.769-35.719-24.837-52.687
	c-9.013-16.864-18.388-33.609-29.292-49.337C298.264,206.525,295.247,201.531,291.491,197.88z"/>
<linearGradient id="SVGID_1_" gradientUnits="userSpaceOnUse" x1="360.5547" y1="817.6208" x2="265.815" y2="740.6719" gradientTransform="matrix(1 0 0 -1 0.04 1023.064)">
	<stop  offset="0" style="stop-color:#556060"/>
	<stop  offset="1" style="stop-color:#707A74"/>
</linearGradient>
<path fill="url(#SVGID_1_)" d="M270.552,210.415l0.751-0.189c1.903-3.748,2.305-8.595,2.992-12.716l3.859-23.453l5.086-23.311
	c1.492,0.237,3.16,1.486,4.483,2.249l9.571,5.66c17.14,10.507,32.744,23.474,47.677,36.874
	c26.427,23.714,50.516,49.444,71.407,78.199l1.794,2.478l-23.606,9.247c-11.302-21.431-25.459-41.901-40.806-60.616
	c-14.477-17.656-29.801-33.773-48.01-47.627c-6.483-4.932-13.077-10.486-20.984-12.925l-0.468-0.14
	c-3.571,13.284-3.758,27.978-4.043,41.666c-0.489,23.458,0.191,46.862,2.3,70.238l1.21,11.2c0.183,1.375,0.276,3.599,0.818,4.861
	l-8.503,5.278c-0.618-7.524-2.381-15.119-3.349-22.621c-1.649-12.767-2.295-25.729-2.641-38.588
	C269.86,227.682,269.518,218.851,270.552,210.415z"/>
<path fill="#FEFEFE" d="M426.998,706.456l68.949-0.043l-0.03,18.145l-49.925-0.02l-0.01,18.926l41.71,0.076l-0.08,18.373
	l-36.995,0.06l-4.656,0.056l0.013,17.979l49.919-0.033l-0.061,18.53l-68.626-0.022c-0.696-1.966-0.295-5.097-0.291-7.255
	l0.018-17.346L426.998,706.456z"/>
<path fill="#CC4545" d="M667.796,312.811c-9.731-8.088-19.189-15.029-30.255-21.232c21.145-41.654,51.517-83.838,91.207-109.563
	c3.996,17.458,5.247,34.85,5.451,52.721c0.342,29.881-2.819,58.457-10.265,87.409l-14.062,46.577
	c-1.256-2.396-4.252-6.625-4.674-9.128c3.677-8.706,6.299-18.594,8.8-27.719c11.036-40.263,17.318-84.758,10.516-126.323
	l-0.306-0.008l-7.559,7.828c-19.154,23.37-33.986,51.831-43.29,80.563C671.345,300.16,669.173,306.41,667.796,312.811z"/>
<linearGradient id="SVGID_2_" gradientUnits="userSpaceOnUse" x1="720.958" y1="631.7966" x2="662.0605" y2="852.3622" gradientTransform="matrix(1 0 0 -1 0.04 1023.064)">
	<stop  offset="0" style="stop-color:#323438"/>
	<stop  offset="1" style="stop-color:#637170"/>
</linearGradient>
<path fill="url(#SVGID_2_)" d="M604.223,276.167c4.862-7.095,10.543-13.836,15.933-20.547c21.626-26.929,45.28-50.931,72.181-72.59
	c15.695-12.637,32.091-24.399,49.97-33.769c2.842,9.004,4.344,18.196,5.874,27.488c3.409,20.696,5.05,41.111,6.554,62l0.667-0.16
	c0.102,3.777-0.611,7.405-0.877,11.16c-1.33,18.742-3.41,37.787-7.436,56.158c-0.185,4.572-1.911,9.855-2.925,14.328
	c-5.521,24.344-12.464,48.971-22.314,71.943c-1.539-3.509-5.095-8.952-4.108-12.751l22.057-79.829
	c7.297-43.858,9.109-90.75-4.307-133.675c-12.879,6.101-24.359,14.976-35.023,24.333c-18.202,15.973-34.931,34.787-48.83,54.645
	c-5.013,7.163-9.402,14.844-13.969,22.297l-11.081,18.271C619.15,282.185,612.033,278.539,604.223,276.167z"/>
<path fill="#FEFEFE" d="M318.448,706.47l15.654,0.009c1.857,0.001,4.49-0.344,6.271,0.003c1.451,0.283,4.401,2.837,5.657,3.775
	l17.992,13.642c0.099,0.072,0.962,0.695,0.963,0.695c0.748-0.115,3.794-2.778,4.526-3.311l15.236-10.702
	c1.736-1.196,3.959-3.255,5.831-4.035c1.133-0.473,4.271-0.15,5.615-0.149l16.812,0.059l0.04,92.187l-18.758-0.005l-0.116-56.263
	l0.076-15l-29.282,21.641l-27.975-21.927l-0.007,71.336l-18.605,0.045L318.448,706.47z"/>
<path fill="#F87267" d="M667.796,312.811c1.377-6.401,3.549-12.651,5.564-18.876c9.304-28.731,24.136-57.192,43.29-80.563
	l7.559-7.828l0.306,0.008c6.803,41.565,0.521,86.061-10.516,126.323c-2.501,9.125-5.123,19.013-8.8,27.719
	c-3.5-6.143-6.934-12.163-11.079-17.916C686.486,331.087,677.356,321.661,667.796,312.811z"/>
<path fill="#FFD100" d="M372.682,193.52c5.255-2.791,11.027-4.982,16.538-7.227c11.803-4.808,23.716-9.001,36.03-12.295
	c13.631-3.647,27.409-6.905,41.392-8.89c46.357-6.576,94.204-2.841,138.949,10.895c11.091,3.404,21.855,7.211,32.495,11.841
	c3.882,1.688,8.246,3.29,11.763,5.668l-13.346,13.185c-10.693-4.279-20.972-8.876-32.003-12.325
	c-53.615-16.763-112.722-18.638-167.147-4.717c-9.711,2.484-19.405,5.329-28.835,8.731c-7.381,2.661-14.73,5.905-22.303,7.964
	l-0.778,0.207L372.682,193.52z"/>
<path fill="#F87267" d="M291.491,197.88c3.756,3.651,6.772,8.646,9.755,12.946c10.904,15.728,20.279,32.473,29.292,49.337
	c9.068,16.968,18.125,34.632,24.837,52.687c-17.896,15.495-30.796,33.487-41.647,54.438c-4.447-9.276-6.985-19.843-9.476-29.793
	C292.894,292.109,289.171,244.562,291.491,197.88z"/>
<path fill="#FFD100" d="M296.903,470.456c1.051-9.496,3.518-18.984,5.682-28.285c5.271-22.649,11.063-44.86,21.029-65.982
	c5.383-11.408,11.299-22.833,18.729-33.055c17.933-24.662,45.129-43.286,73.629-53.505c8.198-2.938,16.513-4.956,24.96-7.007
	c44.313-10.754,93.377-11.194,137.765-0.746c13.317,3.136,27.157,7.266,39.523,13.151c12.21,5.81,24.757,12.874,35.396,21.212
	c25.555,20.03,43.345,48.256,54.095,78.644c-0.787-0.423-0.91-0.308-1.27-1.168c-3.581-8.562-8.74-16.325-13.919-23.975
	c-19.769-29.19-45.131-48.927-77.758-61.994c-13.98-5.599-28.752-9.579-43.452-12.76c-24.502-5.301-49.354-8.119-74.466-6.664
	c-11.465,0.664-22.8,2.555-34.098,4.533c-18.282,3.2-36.719,7.894-53.792,15.27c-15.819,6.834-32.074,15.481-45.529,26.276
	c-20.871,16.746-37.104,41.25-46.848,66.024c-8.399,21.355-13.187,43.266-18.074,65.606c-0.261,1.189-0.33,4.021-1.333,4.548
	L296.903,470.456z"/>
<path fill="#FEFEFE" d="M606.893,707.147l20.021-0.025l0.135,60.521c3.209,2.014,6.444,3.923,9.32,6.405l0.49,0.429l0.912-0.621
	c2.935-2.275,5.89-3.855,9.171-5.573l0.041-61.134l19.989-0.014l0.115,61.343c3.804,1.377,6.367,3.254,9.276,5.962
	c1.341-0.537,2.639-1.785,3.841-2.621l6.965-4.399l-0.119-53.583c-0.016-2.002-0.35-4.524,0.243-6.421l20.234-0.038l0.15,76.516
	l-16.539,11.615c-2.498,1.724-5.527,4.3-8.342,5.28c-3.564,1.243-8.009-2.474-10.797-4.275l-11.696-7.695
	c-0.243-0.161-2.332-1.629-2.436-1.619c-0.576,0.059-2.992,2.033-3.594,2.454l-12.245,8.044c-2.05,1.247-4.576,2.854-7.029,3.006
	c-1.305,0.081-2.698-0.049-3.916-0.55c-3.104-1.273-6.176-3.913-8.961-5.825c-5.128-3.519-10.776-6.883-15.431-11L606.893,707.147z"
	/>
<path fill="#FEFEFE" d="M547.385,702.202c2.629-0.183,5.486,0.066,8.104,0.373c10.171,1.195,18.939,7.418,25.154,15.294
	c8.423,10.674,11.242,27.176,9.561,40.447l-0.122,0.934c-1.245,9.916-4.956,19.157-11.332,26.918
	c-7.513,9.144-17.579,13.115-29.128,14.197c-1.314,0.101-2.631,0.15-3.942-0.018c-11.67-1.497-22.45-7.886-29.545-17.209
	c-8.028-10.55-11.215-25.814-9.351-38.826c1.339-9.343,3.853-18.589,9.959-26.026C524.632,708.677,535.073,703.323,547.385,702.202z
	"/>
<path fill="#202020" d="M522.236,726.25c2.67,0.221,22.501,14.363,25.876,16.616l27.042-16.782c1.485,2.732,2.873,5.314,3.792,8.302
	c-1.522,1.815-4.479,3.356-6.455,4.715c-4.946,3.396-10.008,6.709-14.651,10.515l16.07,8.696c2.155,1.197,5.383,2.477,7.011,4.237
	c-1.114,3.501-3.535,11.204-6.671,13.194l-1.924-0.561c-5.752-2.927-12.734-5.519-17.927-9.236c-0.473-2.987-0.86-8.26-3.649-10.015
	c-1.477-0.929-2.094-0.882-3.75-0.513c-3.423,2.46-2.658,6.136-4.319,9.458c-0.902,1.807-3.468,3.025-5.177,3.882
	c-4.987,2.499-10.012,4.976-15.187,7.063c-3.284-4.434-4.684-9.172-6.244-14.38l23.356-12.088c-6.192-5.474-14.382-9.9-21.39-14.38
	C519.111,731.943,520.207,728.78,522.236,726.25z"/>
<path fill="#C6AA01" d="M811.667,707.25l0.26,0.114c0.956,0.87,0.336,1.104-0.177,2.141L785.062,760.5l-6.329,11.783
	c-0.507,0.95-1.989,3.055-2.148,4.031c-0.152,0.93,23.868,46.324,26.258,50.886l4.686,8.696c0.646,1.174,1.902,2.898,1.979,4.205
	l-41.756-0.065l-33.71,0.019l-0.119-132.714L811.667,707.25z"/>
<path fill="#C6AA01" d="M210.224,707.054l80.712,0.013l-0.37,133.81l-33.691-0.194l-43.309,0.038l33.862-64.292L210.224,707.054z"/>
<path fill="#C6AA01" d="M385.437,206.557l0.778-0.207c7.572-2.059,14.922-5.303,22.303-7.964c9.43-3.402,19.124-6.247,28.835-8.731
	c54.426-13.921,113.532-12.046,167.147,4.717c11.031,3.449,21.31,8.046,32.003,12.325l-2.973,3.035
	c-6.641,0.399-14.355,6.003-19.831,9.517c-18.285,11.729-37.451,25.473-51.896,41.81l-2.942,3.76
	c-14.876-1.371-29.619-3.1-44.593-3.308c-16.363-0.229-32.604,1.481-48.831,3.314l-0.191-0.799
	c-8.7-9.03-18.643-17.283-28.51-24.992c-11.193-8.745-22.843-17.157-35.333-23.977c-2.923-1.597-9.95-6.269-12.868-5.408
	C388.342,209.635,385.761,206.885,385.437,206.557z"/>
<path fill="#FFD100" d="M761.173,295.168c2.209,0.944,4.592,5.667,6.021,7.848c12.105,18.475,22.305,38.116,30.506,58.633
	c31.765,79.46,31.203,167.911-2.691,246.611c-10.816,25.117-25.428,51.068-43.164,71.98l-23.967-0.085l-77.725,0.049l-25.236-0.001
	c-4.935-0.004-9.998,0.258-14.896-0.347c10.606-10.486,18.669-24.089,26.101-36.925c3.072-6.911,7.169-13.492,9.662-20.635
	c0.524-1.502,1.939-6.963,3.056-7.75c2.016-1.42,5.651-2.404,7.968-3.376l13.693-6.267c18.489-9.018,35.141-20.888,48.877-36.271
	c3.569-3.997,6.691-8.55,9.892-12.85c3.037,1.182,5.949,4.207,8.288,6.428c7.933,7.528,14.438,15.55,20.735,24.449
	c0.316-5.104,0.719-10.189,0.041-15.286c-1.881-14.135-9.859-24.824-21.06-33.2l5.692-17.113l24.436,9.129
	c7.748,2.889,17.578,10.317,25.965,6.497c1.818-0.829,3.306-2.363,4.626-3.836l0.682-2.349c0.963-3.815,1.191-7.013-1.085-10.466
	c-1.064-1.615-2.794-3.029-4.443-4.021c-3.546-2.128-7.802-3.473-11.59-5.191c-7.753-3.514-15.34-7.528-23.421-10.25
	c-4.895-1.648-10.093-2.664-15.122-3.842l-0.083-10.25l23.975-0.007l21.005-0.85c1.846-0.066,5.483,0.251,7.086-0.406
	c2.539-1.042,5.069-3.758,7.03-5.654c0.706-3.657,0.794-6.513-0.147-10.132c-0.807-1.301-1.582-2.647-2.677-3.733
	c-5.724-5.671-19.151-3.478-26.503-3.278l-35.14,2.144l-5.405-29.912l-3.699-14.777c-0.49-1.794-1.636-4.457-1.727-6.255
	c-0.033-0.678,0.946-2.381,1.249-3.047l3.929-9.186l11.541-34.047c6.02-15.738,10.505-33.438,13.537-49.977
	C757.633,310.016,760.337,302.623,761.173,295.168z"/>
<path fill="#C6AA01" d="M756.983,317.366c3.662,5.038,6.449,10.925,9.333,16.443c6.126,11.723,11.959,23.561,16.34,36.062
	l-39.21-2.528C749.466,351.604,753.951,333.904,756.983,317.366z"/>
<path fill="#C6AA01" d="M764.347,382.105c3.354-0.249,7.099-0.291,10.357,0.587l0.796,0.227c2.554,0.717,4.747,1.712,7,3.097
	c8.409,5.166,11.174,16.584,13.292,25.492c-6.436,5.647-12.23,11.179-19.91,15.132l-3.236,0.853
	c-5.933,1.312-12.885,0.205-18.003-3.06c-4.86-3.103-8.478-8.012-9.603-13.729L744.909,410c-1.284-6.386-0.209-12.53,3.419-17.992
	C752.302,386.027,757.437,383.43,764.347,382.105z"/>
<path fill="#C6AA01" d="M636.121,642.931l0.563-0.062c3.828-0.446,7.556-1.643,11.283-2.594l20.685-6.09
	c33.434-11.539,64.795-25.775,94.264-45.487c10.13-6.776,19.602-13.509,28.354-22.06c-8.449,35.36-27.009,69.411-49.539,97.755
	l-13.853,15.761l-77.725,0.049l-25.236-0.001c-4.935-0.004-9.998,0.258-14.896-0.347
	C620.627,669.37,628.689,655.767,636.121,642.931z"/>
<path fill="#FFD100" d="M263.394,295.601l4.449,25.736c1.049,8.978,3.376,18.143,5.664,26.882
	c2.248,8.591,4.629,17.446,7.805,25.748c4.63,12.448,9.123,25.912,16.41,37.096c-5.367,18.761-10.246,38.361-12.446,57.784
	c-10.371-2.941-48.734-10.491-57.036-6.098l-0.809,0.42c-2.93,1.579-5.111,3.754-6.079,6.994c-0.855,2.863-0.252,6.28,1.228,8.845
	c1.332,2.308,3.961,4.938,6.67,5.45l53.228,2.752l-1.245,13.657c-10.317,2.546-44.555,11.761-49.483,19.917
	c-1.75,2.897-2.142,6.189-1.339,9.455c0.758,3.084,2.689,5.821,5.46,7.416c2.608,1.501,6.603,2.009,9.46,1.022
	c4.12-1.424,7.874-4.498,11.702-6.568c8.333-4.508,16.759-8.437,25.685-11.634c1.377,4.276,2.637,8.701,5.02,12.544
	c-8.759,8.87-16.947,17.337-23.023,28.363c-1.681,3.05-3.809,7.13-3.736,10.659c0.045,2.157,1.178,3.633,2.798,5.004
	c1.607,1.359,2.92,1.794,5.014,1.559c2.322-0.261,4.316-1.659,5.672-3.505c5.297-7.213,9.913-15.092,16.141-21.596
	c1.586-1.656,3.255-3.655,5.162-4.921c13.833,26.12,37.85,45.781,63.734,59.444c1.914,1.01,14.848,6.647,15.738,7.915
	c0.716,1.021,1.194,3.539,1.622,4.784l3.996,10.657c2.361,5.735,5.175,11.192,8.02,16.697c6.334,10.877,13.357,23.137,22.171,32.285
	l-32.379,0.032l-60.702-0.027l-30.259,0.055c-4.399,0.021-11.076,0.896-15.212-0.354l-0.728-0.553
	c-1.487-1.288-2.883-3.55-4.087-5.123l-9.369-12.992c-29.756-43.118-46.702-94.525-53.295-146.195
	c-1.899-14.885-2.162-30.056-1.663-45.033c1.6-47.992,13.667-94.229,36.145-136.676C246.36,320.542,254.383,307.218,263.394,295.601
	z"/>
<path fill="#C6AA01" d="M267.843,321.338c1.049,8.978,3.376,18.143,5.664,26.882c2.248,8.591,4.629,17.446,7.805,25.748
	l-39.001-1.352c5.218-12.498,10.58-24.996,17.033-36.918c1.728-3.192,3.631-6.294,5.682-9.289c0.94-1.373,2.367-2.517,2.684-4.199
	L267.843,321.338z"/>
<path fill="#C6AA01" d="M250.06,382.608c5.741-0.582,11.571,0.743,16.44,3.865c4.92,3.154,8.614,9.13,9.75,14.844
	c1.121,5.633-0.78,11.903-4.043,16.503c-3.855,5.437-10.078,8.042-16.431,9.153c-9.987,0.405-19.612-5.882-26.951-12.165
	c0.011-2.614,0.76-5.3,1.338-7.838c1.288-5.66,2.716-11.854,6.087-16.685C239.564,385.538,244.621,383.679,250.06,382.608z"/>
<path fill="#C6AA01" d="M272.495,680.072l23.534-0.132c-18.663-22.421-34.684-45.744-46.47-72.545
	c-4.68-10.644-8.418-21.925-12.077-32.96c9.886,8.629,20.458,15.983,31.403,23.195c29.872,19.681,62.415,34.919,96.79,44.895
	c7.005,2.033,15.486,5.231,22.748,5.545l0.453,0.012c6.334,10.877,13.357,23.137,22.171,32.285l-32.379,0.032l-60.702-0.027
	l-30.259,0.055C283.308,680.448,276.631,681.322,272.495,680.072z"/>
<path fill="#4D4D4D" d="M296.903,470.456l0.271,0.124c1.003-0.527,1.072-3.358,1.333-4.548c4.888-22.341,9.675-44.251,18.074-65.606
	c9.744-24.774,25.977-49.278,46.848-66.024c13.455-10.795,29.71-19.442,45.529-26.276c17.073-7.376,35.51-12.069,53.792-15.27
	c11.298-1.979,22.633-3.869,34.098-4.533c25.111-1.455,49.964,1.363,74.466,6.664c14.7,3.181,29.472,7.161,43.452,12.76
	c32.627,13.067,57.989,32.804,77.758,61.994c5.179,7.649,10.338,15.413,13.919,23.975c0.359,0.86,0.482,0.745,1.27,1.168
	c2.844,6.089,4.856,13.236,6.82,19.664c5.485,17.951,9.816,36.591,12.19,55.22l-4.94,0.313l-9.597,0.536l0.521,0.554
	c1.998,2.143,3.604,5.651,5.767,7.33l0.066,6.102c3.884,1.663,8.018,2.298,11.824,3.872l1.022,8.631l-5.521-0.858l-0.785-0.139
	c-11.837-2.141-18.78-10.354-28.766-15.997c5.721,10.937,11.326,19.316,20.98,27.192c-0.84,0.464-0.837,0.276-1.204,1.248
	c-0.934,1.424-1.45,2.189-1.139,3.95c0.539,3.049,3.77,5.511,6.298,6.944c2.659,1.508,5.179,1.041,8.095,1.292
	c-0.771,3.842-1.353,9.348-3.46,12.721c-5.208-1.492-10.94-9.114-14.53-13.104c-0.832,8.287-3.033,15.061-6.537,22.58
	c0.442-14.321,4.851-27.25-3.265-40.619c-1.882-3.102-4.548-5.833-8.227-6.602c-3.408-0.713-6.658,0.416-9.401,2.462
	c-8.995,6.708-8.048,18.25-8.502,28.034c-0.162,3.489-0.804,7-1.338,10.446c-1.244-7.074-2.525-16.076-7.146-21.821
	c-2.4-2.983-6.083-5.54-9.996-5.782c-4.214-0.263-7.855,1.822-10.936,4.505c-7.697,6.703-12.608,17.676-13.386,27.767
	c-0.741,9.625,1.949,20.499,8.423,27.898c7.446,8.511,15.67,10.709,26.611,11.381c-22.413,10.68-46.473,17.459-69.515,26.625
	c-18.336,7.293-36.334,15.89-53.361,25.871l-32.838,21.137c-4.228-1.501-9.295-5.969-13.251-8.463l-20.224-11.875
	c-26.88-14.636-55.178-27.657-84.581-36.349c-9.165-2.708-18.656-4.648-27.988-6.704c8.762-5.028,16.155-9.931,21.348-18.876
	c4.796-8.266,7.162-19.3,4.551-28.619c-0.825-2.944-1.69-5.824-2.988-8.6c-3.961-8.47-10.63-14.981-19.571-17.99
	c-15.191-5.113-28.225,0.951-41.495,7.768c0.386-1.277,2.161-3.156,2.982-4.277l10.247-13.435c1.42-1.888,3.462-3.825,4.211-6.08
	c0.398-1.197,0.777-1.491,1.798-2.229l0.511-1.264c-5.178-9.849-39.73-20.354-50.741-24.302
	C296.439,471.74,296.484,471.632,296.903,470.456z"/>
<path fill="#202020" d="M506.347,471.179c12.316-0.91,24.813,1.933,35.211,8.74c3.391,2.219,6.688,4.923,7.357,9.159
	c0.306,1.942-0.308,4.261-0.828,6.124c-1.908,6.836-5.732,14.063-10.232,19.547c-6.262,7.631-13.818,11.479-23.506,12.573
	c-8.912,0.143-16.801-2.046-24.242-7.023c-8.322-5.567-16.215-14.461-18.11-24.55c-0.688-3.66-0.688-6.894,1.664-9.979
	c1.727-2.267,4.492-4.036,6.885-5.538C488.549,475.207,497.048,472.51,506.347,471.179z"/>
<path fill="#4D4D4D" d="M519.076,482.918c2.917-1.357,7.362-0.271,10.373,0.832c3.399,1.247,8.017,3.713,9.976,6.891
	c-3.526,7.688-9.361,17.584-17.628,20.934c-1.187,0.482-2.28,0.588-3.547,0.647c-0.801-0.397-1.292-0.385-1.621-1.284
	c-0.603-1.648-0.377-4.445,0.675-5.877c0.755-1.027,2.329-1.491,3.446-2.008c4.074-1.883,8.078-4.904,9.285-9.474l0.464-0.188
	c0.836-0.619,0.871-1.456,1.067-2.391C529.25,486.803,523.339,484.503,519.076,482.918z"/>
<path fill="#FEFEFE" d="M505.104,482.986c4.649-0.518,9.319-0.693,13.972-0.068c4.263,1.585,10.174,3.886,12.49,8.082
	c-0.196,0.935-0.231,1.771-1.067,2.391l-0.464,0.188c-2.837-1.697-5.568-2.049-8.765-2.52c-8.87-1.308-18.059-0.447-26.763,1.485
	c-0.889-0.227-1.785-0.418-2.633-0.773l-0.375-0.176c-0.969,1.266-2.518,2.603-4.137,2.875c-0.946,0.159-1.396-0.644-2.065-1.221
	l0.011-1c1.994-1.671,3.974-0.9,5.747-1.96c0.884-0.526,2.078-2.522,2.932-3.331C496.315,484.752,501.956,483.879,505.104,482.986z"
	/>
<path fill="#4D4D4D" d="M494.508,492.545c-0.052,4.184,1.388,8.251,5.546,9.955c2.633,1.08,4.947,1.491,6.84,3.75
	c0.175,1.915,0.175,2.966-0.644,4.724c-1.13,0.933-1.4,1.492-2.937,1.276c-4.854-0.678-18.217-10.395-20.747-14.695
	c-1.024-1.74-1.733-3.811-1.11-5.805c0.85-2.724,5.432-4.707,7.923-5.793c4.288-1.866,11.283-4.731,15.726-2.971
	c-3.148,0.893-8.789,1.766-11.117,3.973c-0.854,0.809-2.048,2.805-2.932,3.331c-1.773,1.06-3.753,0.289-5.747,1.96l-0.011,1
	c0.669,0.577,1.119,1.38,2.065,1.221c1.619-0.272,3.168-1.609,4.137-2.875l0.375,0.176
	C492.723,492.127,493.619,492.318,494.508,492.545z"/>
<path fill="#202020" d="M589.11,518.293l3.105,3.755c7.759,9.634,12.521,20.557,11.032,33.144c-1.375,11.62-8,21.345-17.162,28.34
	c-10.781,8.231-24.194,10.729-37.447,8.901c-15.14-2.087-27.957-11.354-36.895-23.351c-6.91,10.198-16.521,17.206-28.134,21.168
	c-13.391,4.568-27.771,3.9-40.499-2.406c-9.915-4.912-18.006-13.542-21.493-24.13c-3.817-11.596-1.92-21.113,3.449-31.704
	c2.371-4.383,5.734-8.18,8.972-11.936l-2.592,5.978c-3.928,9.941-5.214,22.511-0.733,32.461c3.936,8.739,11.02,14.38,19.828,17.705
	c10.508,3.965,22.745,3.286,32.929-1.403c13.028-5.998,24.267-18.085,29.265-31.51l1.985,5.518
	c5.596,12.423,15.766,22.433,28.57,27.196c10.176,3.787,22.543,3.783,32.473-0.827c8.271-3.84,14.56-11.096,17.619-19.658
	C597.928,542.812,594.713,530.074,589.11,518.293z"/>
<path fill="#202020" d="M618.787,381.698c15.73-0.957,31.488,4.105,43.648,14.205c11.676,9.695,20.012,24.835,21.441,40.008
	c1.528,16.22-3.311,31.519-13.677,44.063c-11.021,13.337-24.85,19.914-41.866,21.447c-16.474,0.438-31.079-4.482-43.955-14.781
	c-11.712-9.367-20.411-24.407-21.924-39.452c-1.616-16.067,2.787-30.907,13.032-43.433
	C586.257,390.589,602.109,383.384,618.787,381.698z"/>
<path fill="#FEFEFE" d="M636.611,434.579l4.889,0.076c2.246,0.29,4.077,1.643,5.432,3.398c1.471,1.903,2.082,4.318,1.529,6.696
	c-0.796,3.423-3.819,5.491-6.665,7.107c-1.693,0.298-3.338,0.495-5.046,0.146c-2.098-0.43-4.072-2.088-5.201-3.864
	c-1.423-2.24-2.01-4.966-1.263-7.55C631.181,437.488,633.904,435.909,636.611,434.579z"/>
<path fill="#FEFEFE" d="M596.17,399.607c3.391-0.442,6.913-0.423,10.08,1.008c4.11,1.857,6.966,5.36,8.55,9.508
	c1.646,4.311,1.137,8.67-0.901,12.781c-2.384,4.805-6.574,7.863-11.548,9.578c-3.034,0.444-6.335,0.183-9.226-0.868
	c-4.013-1.459-7.335-4.28-9.075-8.226c-1.913-4.338-1.716-9.358,0.106-13.68C586.464,404.238,590.939,401.693,596.17,399.607z"/>
<path fill="#FFD100" d="M643.154,394.62l5.403,2.45c11.75,6.683,20.289,18.134,23.819,31.11c3.78,13.891,2.381,27.033-4.909,39.487
	c-6.761,11.55-17.311,20.145-30.361,23.508c-13.81,3.559-28.127,0.872-40.278-6.366c-12.534-7.465-21.163-19.087-24.714-33.199
	c-1.408-6.932-1.632-15.143,0.212-22.004c1.324-4.931,3.147-10.204,5.92-14.51c0.532-0.827,1.325-2.3,2.159-2.773
	c-0.948,4.228-2.233,8.786-2.013,13.136c0.602,11.814,5.084,23.188,14.061,31.115c8.637,7.628,19.85,11.264,31.297,10.478
	c10.56-0.726,19.614-5.143,26.496-13.215c6.259-7.342,9.905-18.967,9.071-28.587C658.188,412.232,653.106,402.966,643.154,394.62z"
	/>
<path fill="#202020" d="M395.884,381.709c15.06-0.973,32.685,5.891,44.186,15.393c12.151,10.04,19.815,24.529,21.295,40.196
	c1.496,15.855-3.861,31.363-13.952,43.549c-10.666,12.879-26.672,19.191-42.961,20.687c-16.103,0.351-31.408-3.835-44.079-14.177
	c-12.789-10.438-21.26-26.394-22.65-42.866c-1.252-14.832,3.575-30.102,13.239-41.443
	C363.042,388.868,377.544,383.126,395.884,381.709z"/>
<path fill="#FEFEFE" d="M385.756,437.09c1.999,0.045,3.983,0.184,5.803,1.099c2.251,1.131,4.283,3.623,4.907,6.062
	c0.725,2.829,0.685,5.996-1.003,8.5c-1.771,2.631-4.229,3.521-7.165,4.257c-1.962-0.122-4.251-0.168-6.048-1.056
	c-2.174-1.073-4.211-3.553-4.904-5.864c-0.804-2.679-0.302-5.948,1.125-8.337C380.173,438.903,382.691,437.938,385.756,437.09z"/>
<path fill="#FEFEFE" d="M419.298,399.167c3.345,0,6.135,0.388,9.202,1.797c5.103,2.347,9.584,6.712,11.372,12.128
	c1.331,4.036,0.475,8.634-1.577,12.281c-2.993,5.319-7.92,7.896-13.58,9.469c-4.573,0.559-8.852-0.092-12.802-2.592
	c-4.216-2.668-7.143-6.788-8.233-11.647c-1.018-4.534-0.04-9.687,2.55-13.531C409.345,402.442,413.983,400.199,419.298,399.167z"/>
<path fill="#FFD100" d="M379.086,395.75h1.507c-4.458,3.961-8.33,8.017-11.37,13.193c-5.832,9.929-7.012,21.619-4.007,32.666
	c2.409,8.856,7.551,16.726,15.675,21.278c9.636,5.399,22.646,5.902,33.028,2.758c10.96-3.321,20.931-11.497,26.331-21.586
	c3.214-6.005,5.495-14.048,5.015-20.905c-0.273-3.907-1.424-7.62-2.547-11.344c8.122,10.509,10.529,23.296,9.69,36.306
	c-1.397,8.849-4.232,16.614-9.545,23.914c-7.979,10.962-20.229,17.708-33.583,19.663c-14.008,2.052-29.033-1.837-40.24-10.408
	c-11.1-8.488-18.732-21.169-20.677-35.035c-1.31-9.327,0.173-17.561,3.791-26.167C357.559,407.229,366.589,400.787,379.086,395.75z"
	/>
</svg>
