<?xml version="1.0" encoding="utf-8"?>
<!-- Generator: Adobe Illustrator 19.0.0, SVG Export Plug-In . SVG Version: 6.00 Build 0)  -->
<svg version="1.1" id="圖層_1" xmlns="http://www.w3.org/2000/svg" xmlns:xlink="http://www.w3.org/1999/xlink" x="0px" y="0px"
	 viewBox="376.3 70.2 699.3 699.3" style="enable-background:new 376.3 70.2 699.3 699.3;" xml:space="preserve">
<style type="text/css">
	.st0{clip-path:url(#SVGID_2_);fill:#202020;}
	.st1{clip-path:url(#SVGID_2_);fill:#FEFEFE;}
	.st2{clip-path:url(#SVGID_2_);fill:#4D4D4D;}
	.st3{clip-path:url(#SVGID_2_);fill:#6C7879;}
	.st4{clip-path:url(#SVGID_2_);fill:#FFD100;}
	.st5{clip-path:url(#SVGID_2_);fill:#CC4545;}
	.st6{clip-path:url(#SVGID_2_);fill:url(#SVGID_3_);}
	.st7{clip-path:url(#SVGID_2_);fill:url(#SVGID_4_);}
	.st8{clip-path:url(#SVGID_2_);fill:#F87267;}
	.st9{clip-path:url(#SVGID_2_);fill:#C6AA01;}
</style>
<g>
	<defs>
		<rect id="SVGID_1_" x="385" y="82.3" width="682" height="687.3"/>
	</defs>
	<clipPath id="SVGID_2_">
		<use xlink:href="#SVGID_1_"  style="overflow:visible;"/>
	</clipPath>
	<path class="st0" d="M888.3,135.7c10.7-9.2,22.6-17.1,34.6-24.6l41.3-23.3c2.9,8,4.6,16.2,6.3,24.5c4.8,23.2,6.9,46.5,7.1,70.2
		l-0.4,29.1c13,13.2,24.1,29.1,33.7,45c20.9,34.8,35.6,71.5,44.1,111.3c15.2,71.3,7.8,148-21.4,214.9c-8.2,18.8-18.3,36.5-29.5,53.7
		c3.8,1.1,9.5,0.4,13.6,0.4l37.9,0.1c3.3,0,8.1-0.6,11.3,0.2l-48.4,94.5l45.2,87.9c-2.1,1-105.3,0.4-118.4,0.3l-0.1,5.2
		c-0.6,10.7-4.6,20.4-13,27.5c-5.6,4.8-12.9,8-20.3,8.7c-6.7,0.7-13.6,0.3-20.3,0.3l-32.6-0.1l-107.1-0.1l-138.6,0l-45.6,0
		c-8.8,0-17.8,0.3-26.6-0.3c-10-0.7-18.6-5.1-25-12.7c-7.1-8.5-8.7-18.4-7.8-29.1l-120.8,0.4l12.6-23.6l26.3-49.1l6.3-11.7
		c0.3-0.6,1.9-2.9,1.9-3.5c0-0.6-7.3-13-8.1-14.5L398,663.1l-9.9-19.1c-0.9-1.8-2.9-4.8-3.1-6.7h66.5c-9.8-14.9-19-30.2-26.6-46.3
		c-14.2-30.1-23.6-62.3-29.1-95.1c-13.2-78.1,3.3-164.3,44.3-232c7.4-12.2,15.5-24.3,24.2-35.5c4.3-5.6,9.6-10.7,13.6-16.5l0.4-0.6
		c-1.2-10.6-1.2-21.4-1.1-32.1c0.2-30.9,3.9-61.1,13.2-90.6c3.1,0.3,7.6,3.2,10.5,4.7c15.7,8.1,30.4,17.1,44.7,27.5
		c6.3,4.6,12.8,9.4,18.6,14.8c20.7-9,40.6-18.2,62.3-24.8c72.1-21.9,153.9-19.7,224.1,7.9L888.3,135.7z"/>
	<path class="st1" d="M943,506.6c0.6-1.2,1.2-2,2-3c6,5.3,11.9,11.5,14.8,19.1C954.7,516.6,949.1,511.6,943,506.6z"/>
	<path class="st2" d="M930.6,497.6c0.2-1.5,0-2.8,1.2-3.8l2.2,1.2l7.4,5.8l3.4,2.9c-0.8,1-1.4,1.8-2,3c-0.4,0-1.9-1.1-2.4-1.4
		L930.6,497.6z"/>
	<path class="st2" d="M936.2,465.4l-0.5-0.3l-0.7-0.5c-2.2-1.5-4.1-3.3-5.5-5.6l0.3-1.1c1.7-0.7,2.3-0.3,4.1,0.2
		c3.3,1.1,7.6,2,10.4,3.9l-4.2,2.4c0.5,0.6,0.8,1.1,1.5,1.6C939.7,466.5,938.2,466,936.2,465.4z"/>
	<path class="st1" d="M510,498.8c0.8-0.1,0.3-0.1,1.3,0.3l0.6,1.7c-7.4,6.3-13.6,13.5-19.8,20.9l-1.1,0.8c0.4-2.3,2.2-4.4,3.5-6.3
		C498.9,509.7,503.8,503.8,510,498.8z"/>
	<path class="st1" d="M526,463.4l20.5,0.1l-17,2.6c-2.9,0.5-14.7,3.5-16.6,2.9l-1.1-4.3L526,463.4z"/>
	<path class="st3" d="M532.5,468.9c-0.2,1.5-1.6,2.4-2.6,3.4c-3.4,3.3-7.2,6.1-10.7,9.2c-0.6,0.5-1.2,0.7-1.2,1.6c0,1.1,0,2-0.4,3.1
		c-1.6-3.7-2.7-8.1-3.7-12.1c1.6-1.1,3.9-1.4,5.8-1.9L532.5,468.9z"/>
	<path class="st1" d="M513.8,438.4l0.8-0.1c1.7,0,4.7,1.2,6.4,1.7c8.3,2.4,16.4,5.4,24.3,8.9c4.7,2.1,9.6,4.2,13.7,7.4
		c-6.1-1.5-11.8-4-17.8-5.8l-18.9-5.7c-2.8-0.8-7-1.3-9.4-3L513.8,438.4z"/>
	<path class="st1" d="M500.1,467.4l0.8,0.1c0.8,1.3,0.6,2.9,0.7,4.4c-2.8,1.5-6.2,2.3-9.2,3.3l-17.1,6.8c-3.8,1.7-9,5.8-13.2,5.2
		c-0.8-0.6-1.1-1.1-1.7-1.8c0-0.9,0.1-1.4,0.6-2.2C464.7,477.2,492.8,469.3,500.1,467.4z"/>
	<path class="st3" d="M547.6,459.4c-11.6-1.7-24.2-0.3-35.8,0.1c0-2.2-0.1-4.5,0.3-6.6c0.3-1.7,0.4-3.4,0.5-5.1c3,0,6.5,1.3,9.5,2
		l28.7,8.2C549.7,458.7,548.8,459.1,547.6,459.4z"/>
	<path class="st1" d="M936.8,432.7l44.4-1.2l13.4-0.5c2.6-0.1,5.5-0.6,7.9,0.7c1,1.3,1,1.3,0.9,3c-0.3,0.3-0.6,0.7-1,1
		c-1.3,0.7-43.3,0.2-49.1,0.2c-2.8,0-8.7-0.7-11.1,0.3c-1.2-0.3-3.4-1.4-4.5-1c-0.9,0.4-1.7,0.2-2.6,0.1c-0.9-0.2-1.1-0.1-1.5-0.8
		c1.3-0.2,1.9-0.7,2.9-1.5L936.8,432.7z"/>
	<path class="st1" d="M455.1,429.5l0.7-0.1c3.4-0.4,7-0.1,10.4,0.1c9.6,0.5,19.1,1.9,28.6,3.5c2.2,0.4,6.6,0.6,8.3,1.9
		c0,1.7-0.3,3.1-0.7,4.7l-1.3,0.2l-46.9-4.9c-1.4-1.2-1.3-1.4-1.5-3.2C453.5,430.2,453.5,430.3,455.1,429.5z"/>
	<path class="st1" d="M944.4,462c7,2.8,14.3,4.2,21.4,6.5c8.6,2.8,16.7,6.5,24.9,10.1c3.3,1.4,8.3,2.6,10.1,6
		c-0.1,0.7,0,1.1-0.6,1.5c-1.1,0.7-1.7,1-3.1,1.1c-4.8-1.8-9.2-4.5-13.9-6.6c-12.9-5.7-27.5-11.5-41.3-14.5c-0.6-0.5-1-1-1.5-1.6
		L944.4,462z"/>
	<path class="st4" d="M783.3,772.3l11.4,0l-0.1,62.5l-11.3,0L783.3,772.3z"/>
	<path class="st4" d="M609.4,772.5l5.1,0l-0.1,51.1l28.9,0c0,3.2,0.7,8.3-0.4,11.2l-3.1,0.1l-36.6-0.1l0.1-62L609.4,772.5z"/>
	<path class="st4" d="M605.9,174.4c2.9-0.8,9.8,3.7,12.6,5.3c12.3,6.7,23.7,15,34.7,23.6c9.7,7.6,19.5,15.7,28,24.6l0.2,0.8
		l-29.7,5.9C639.7,212.1,623.3,192.8,605.9,174.4z"/>
	<path class="st4" d="M773.3,228.6l2.9-3.7c14.2-16.1,33-29.6,51-41.1c5.4-3.5,13-9,19.5-9.4c-7.8,8.8-15.8,17.3-22.8,26.7
		c-7.9,10.6-14.7,22-21.7,33.3C792.6,231.6,783.2,229.9,773.3,228.6z"/>
	<path class="st4" d="M663.7,772.3l37.2,0l-0.1,10.7L675,783l0,17.7l24.2,0l0,9.1c0,1.1,0,1.1-0.7,1.9l-23.3,0l0,22.9l-11.8,0
		L663.7,772.3z"/>
	<path class="st4" d="M817.7,772.2l37.8,0.1l0,15.1c-2.9,0-9.9,0.8-12.2-0.6l-0.1-3.4c-1.7-1.5-11.1-0.7-13.8-0.7l0,41.7l13.1-0.1
		l0.5-1.6l0.1-7.9l12.3-0.1l-0.1,20.1l-37.7,0L817.7,772.2z"/>
	<path class="st4" d="M877.4,772.3h38.9l0,10.7l-27.2-0.1l0,16.5l20,0l0,10.8c-3.6,0-17.2-0.8-19.5,0.5l-0.1,2.3l0,10.9l26.6,0
		l0,10.9l-29,0c-2.3,0-7.6,0.6-9.5-0.3L877.4,772.3z"/>
	<path class="st4" d="M817.8,239.8c-1.2-0.5-2.2-0.9-3.1-1.9c6.7-11.3,13.7-22.5,21.8-32.8c10.3-13.1,22-25.4,34-36.9
		c19-18.3,39.3-34.8,61.8-48.7c7.8-4.8,15.5-9.6,24-13.4c8.1,31.6,10.2,64.2,10,96.7l-0.7,0.2c-1.5-20.5-3.1-40.6-6.4-60.9
		c-1.5-9.1-3-18.2-5.8-27c-17.6,9.2-33.7,20.8-49.1,33.2c-26.4,21.3-49.7,44.9-70.9,71.3C828.2,226.2,822.6,232.8,817.8,239.8z"/>
	<path class="st4" d="M489.9,175.2c0.9-23.4,2.4-46.1,8.9-68.8c13,6.5,25,14.5,36.8,23c18.2,13.2,34.8,27.5,50.8,43.3
		c19.9,19.6,39.4,41.4,53.5,65.6l-4.9,1.6l-1.8-2.4c-20.5-28.3-44.2-53.5-70.2-76.9c-14.7-13.2-30-25.9-46.9-36.2l-9.4-5.6
		c-1.3-0.7-2.9-2-4.4-2.2l-5,22.9l-3.8,23c-0.7,4.1-1.1,8.8-2.9,12.5L489.9,175.2z"/>
	<path class="st4" d="M722.3,772.3l38.5-0.1l-0.1,62.9l-10.9,0l0-10.4l0-11l-15.6,0L734,835l-11.7,0.1L722.3,772.3z"/>
	<path class="st0" d="M733.8,783.1l16,0l0,19.7l-16,0L733.8,783.1z"/>
	<path class="st4" d="M540.5,772.3l40.3,0l0,62.5l-10.4,0l0-12.3l0-9.4l-18.7,0.1l-0.1,21.8l-11-0.1L540.5,772.3z"/>
	<path class="st0" d="M551.8,782.7l18.3,0.1l0,19.6l-18.3,0L551.8,782.7z"/>
	<path class="st5" d="M510.5,162.8l1.3-15.8c26,18.4,47.3,43.4,65.9,69.1c9,12.4,17.9,25.6,24.2,39.6c-10.1,6.3-19.5,12.5-28.6,20.1
		c-6.6-17.7-15.5-35.1-24.4-51.8c-8.9-16.6-18.1-33-28.8-48.5C517.2,171.3,514.2,166.4,510.5,162.8z"/>
	
		<linearGradient id="SVGID_3_" gradientUnits="userSpaceOnUse" x1="578.3756" y1="-10.8938" x2="485.2673" y2="64.7301" gradientTransform="matrix(1 0 0 1 4.000000e-002 181.174)">
		<stop  offset="0" style="stop-color:#556060"/>
		<stop  offset="1" style="stop-color:#707A74"/>
	</linearGradient>
	<path class="st6" d="M489.9,175.2l0.7-0.2c1.9-3.7,2.3-8.4,2.9-12.5l3.8-23l5-22.9c1.5,0.2,3.1,1.5,4.4,2.2l9.4,5.6
		c16.8,10.3,32.2,23.1,46.9,36.2c26,23.3,49.6,48.6,70.2,76.9l1.8,2.4l-23.2,9.1c-11.1-21.1-25-41.2-40.1-59.6
		c-14.2-17.4-29.3-33.2-47.2-46.8c-6.4-4.8-12.9-10.3-20.6-12.7l-0.5-0.1c-3.5,13.1-3.7,27.5-4,40.9c-0.5,23.1,0.2,46.1,2.3,69
		l1.2,11c0.2,1.4,0.3,3.5,0.8,4.8l-8.4,5.2c-0.6-7.4-2.3-14.9-3.3-22.2c-1.6-12.5-2.3-25.3-2.6-37.9
		C489.2,192.1,488.9,183.5,489.9,175.2z"/>
	<path class="st1" d="M643.7,662.7l67.8,0l0,17.8l-49.1,0l0,18.6l41,0.1l-0.1,18.1l-36.4,0.1l-4.6,0.1l0,17.7l49.1,0l-0.1,18.2
		l-67.4,0c-0.7-1.9-0.3-5-0.3-7.1l0-17L643.7,662.7z"/>
	<path class="st5" d="M880.3,275.8c-9.6-7.9-18.9-14.8-29.7-20.9c20.8-40.9,50.6-82.4,89.6-107.7c3.9,17.2,5.2,34.2,5.4,51.8
		c0.3,29.4-2.8,57.5-10.1,85.9l-13.8,45.8c-1.2-2.4-4.2-6.5-4.6-9c3.6-8.6,6.2-18.3,8.6-27.2c10.8-39.6,17-83.3,10.3-124.1l-0.3,0
		l-7.4,7.7c-18.8,23-33.4,50.9-42.5,79.2C883.8,263.4,881.7,269.5,880.3,275.8z"/>
	
		<linearGradient id="SVGID_4_" gradientUnits="userSpaceOnUse" x1="932.5732" y1="171.7299" x2="874.6899" y2="-45.0378" gradientTransform="matrix(1 0 0 1 4.000000e-002 181.174)">
		<stop  offset="0" style="stop-color:#323438"/>
		<stop  offset="1" style="stop-color:#637170"/>
	</linearGradient>
	<path class="st7" d="M817.8,239.8c4.8-7,10.4-13.6,15.7-20.2c21.3-26.5,44.5-50.1,70.9-71.3c15.4-12.4,31.5-24,49.1-33.2
		c2.8,8.8,4.3,17.9,5.8,27c3.4,20.3,5,40.4,6.4,60.9l0.7-0.2c0.1,3.7-0.6,7.3-0.9,11c-1.3,18.4-3.4,37.1-7.3,55.2
		c-0.2,4.5-1.9,9.7-2.9,14.1c-5.4,23.9-12.2,48.1-21.9,70.7c-1.5-3.4-5-8.8-4-12.5l21.7-78.5c7.2-43.1,9-89.2-4.2-131.4
		c-12.7,6-23.9,14.7-34.4,23.9c-17.9,15.7-34.3,34.2-48,53.7c-4.9,7-9.2,14.6-13.7,21.9l-10.9,18
		C832.5,245.7,825.5,242.1,817.8,239.8z"/>
	<path class="st1" d="M537,662.7l15.4,0c1.8,0,4.4-0.3,6.2,0c1.4,0.3,4.3,2.8,5.6,3.7l17.7,13.4c0.1,0.1,0.9,0.7,0.9,0.7
		c0.7-0.1,3.7-2.7,4.4-3.3l15-10.5c1.7-1.2,3.9-3.2,5.7-4c1.1-0.5,4.2-0.1,5.5-0.1l16.5,0.1l0,90.6l-18.4,0l-0.1-55.3l0.1-14.7
		l-28.8,21.3l-27.5-21.5l0,70.1l-18.3,0L537,662.7z"/>
	<path class="st8" d="M880.3,275.8c1.4-6.3,3.5-12.4,5.5-18.6c9.1-28.2,23.7-56.2,42.5-79.2l7.4-7.7l0.3,0
		c6.7,40.8,0.5,84.6-10.3,124.1c-2.5,9-5,18.7-8.6,27.2c-3.4-6-6.8-12-10.9-17.6C898.7,293.8,889.7,284.5,880.3,275.8z"/>
	<path class="st4" d="M590.3,158.6c5.2-2.7,10.8-4.9,16.3-7.1c11.6-4.7,23.3-8.8,35.4-12.1c13.4-3.6,26.9-6.8,40.7-8.7
		c45.6-6.5,92.6-2.8,136.6,10.7c10.9,3.3,21.5,7.1,31.9,11.6c3.8,1.7,8.1,3.2,11.6,5.6l-13.1,13c-10.5-4.2-20.6-8.7-31.5-12.1
		c-52.7-16.5-110.8-18.3-164.3-4.6c-9.5,2.4-19.1,5.2-28.3,8.6c-7.3,2.6-14.5,5.8-21.9,7.8l-0.8,0.2L590.3,158.6z"/>
	<path class="st8" d="M510.5,162.8c3.7,3.6,6.7,8.5,9.6,12.7c10.7,15.5,19.9,31.9,28.8,48.5c8.9,16.7,17.8,34,24.4,51.8
		c-17.6,15.2-30.3,32.9-40.9,53.5c-4.4-9.1-6.9-19.5-9.3-29.3C511.9,255.5,508.2,208.7,510.5,162.8z"/>
	<path class="st4" d="M515.8,430.7c1-9.3,3.5-18.7,5.6-27.8c5.2-22.3,10.9-44.1,20.7-64.8c5.3-11.2,11.1-22.4,18.4-32.5
		c17.6-24.2,44.4-42.5,72.4-52.6c8.1-2.9,16.2-4.9,24.5-6.9c43.5-10.6,91.8-11,135.4-0.7c13.1,3.1,26.7,7.1,38.8,12.9
		c12,5.7,24.3,12.7,34.8,20.8c25.1,19.7,42.6,47.4,53.2,77.3c-0.8-0.4-0.9-0.3-1.2-1.1c-3.5-8.4-8.6-16-13.7-23.6
		c-19.4-28.7-44.4-48.1-76.4-60.9c-13.7-5.5-28.3-9.4-42.7-12.5c-24.1-5.2-48.5-8-73.2-6.5c-11.3,0.7-22.4,2.5-33.5,4.5
		c-18,3.1-36.1,7.8-52.9,15c-15.5,6.7-31.5,15.2-44.7,25.8c-20.5,16.5-36.5,40.5-46,64.9c-8.3,21-13,42.5-17.8,64.5
		c-0.3,1.2-0.3,4-1.3,4.5L515.8,430.7z"/>
	<path class="st1" d="M820.5,663.3l19.7,0l0.1,59.5c3.2,2,6.3,3.9,9.2,6.3l0.5,0.4l0.9-0.6c2.9-2.2,5.8-3.8,9-5.5l0-60.1l19.6,0
		l0.1,60.3c3.7,1.4,6.3,3.2,9.1,5.9c1.3-0.5,2.6-1.8,3.8-2.6l6.8-4.3l-0.1-52.7c0-2-0.3-4.4,0.2-6.3l19.9,0l0.1,75.2l-16.3,11.4
		c-2.5,1.7-5.4,4.2-8.2,5.2c-3.5,1.2-7.9-2.4-10.6-4.2l-11.5-7.6c-0.2-0.2-2.3-1.6-2.4-1.6c-0.6,0.1-2.9,2-3.5,2.4l-12,7.9
		c-2,1.2-4.5,2.8-6.9,3c-1.3,0.1-2.7,0-3.8-0.5c-3.1-1.3-6.1-3.8-8.8-5.7c-5-3.5-10.6-6.8-15.2-10.8L820.5,663.3z"/>
	<path class="st1" d="M762,658.5c2.6-0.2,5.4,0.1,8,0.4c10,1.2,18.6,7.3,24.7,15c8.3,10.5,11,26.7,9.4,39.8l-0.1,0.9
		c-1.2,9.7-4.9,18.8-11.1,26.5c-7.4,9-17.3,12.9-28.6,14c-1.3,0.1-2.6,0.1-3.9,0c-11.5-1.5-22.1-7.8-29-16.9
		c-7.9-10.4-11-25.4-9.2-38.2c1.3-9.2,3.8-18.3,9.8-25.6C739.6,664.8,749.9,659.6,762,658.5z"/>
	<path class="st0" d="M737.3,682.1c2.6,0.2,22.1,14.1,25.4,16.3l26.6-16.5c1.5,2.7,2.8,5.2,3.7,8.2c-1.5,1.8-4.4,3.3-6.3,4.6
		c-4.9,3.3-9.8,6.6-14.4,10.3l15.8,8.5c2.1,1.2,5.3,2.4,6.9,4.2c-1.1,3.4-3.5,11-6.6,13l-1.9-0.6c-5.7-2.9-12.5-5.4-17.6-9.1
		c-0.5-2.9-0.8-8.1-3.6-9.8c-1.5-0.9-2.1-0.9-3.7-0.5c-3.4,2.4-2.6,6-4.2,9.3c-0.9,1.8-3.4,3-5.1,3.8c-4.9,2.5-9.8,4.9-14.9,6.9
		c-3.2-4.4-4.6-9-6.1-14.1l23-11.9c-6.1-5.4-14.1-9.7-21-14.1C734.2,687.7,735.3,684.6,737.3,682.1z"/>
	<path class="st9" d="M1021.7,663.4l0.3,0.1c0.9,0.9,0.3,1.1-0.2,2.1l-26.2,50.1l-6.2,11.6c-0.5,0.9-2,3-2.1,4
		c-0.1,0.9,23.5,45.5,25.8,50l4.6,8.5c0.6,1.2,1.9,2.8,1.9,4.1l-41-0.1l-33.1,0l-0.1-130.4L1021.7,663.4z"/>
	<path class="st9" d="M430.6,663.3l79.3,0l-0.4,131.5l-33.1-0.2l-42.6,0l33.3-63.2L430.6,663.3z"/>
	<path class="st9" d="M602.8,171.4l0.8-0.2c7.4-2,14.7-5.2,21.9-7.8c9.3-3.3,18.8-6.1,28.3-8.6c53.5-13.7,111.6-11.8,164.3,4.6
		c10.8,3.4,20.9,7.9,31.5,12.1l-2.9,3c-6.5,0.4-14.1,5.9-19.5,9.4c-18,11.5-36.8,25-51,41.1l-2.9,3.7c-14.6-1.3-29.1-3-43.8-3.3
		c-16.1-0.2-32,1.5-48,3.3l-0.2-0.8c-8.6-8.9-18.3-17-28-24.6c-11-8.6-22.4-16.9-34.7-23.6c-2.9-1.6-9.8-6.2-12.6-5.3
		C605.7,174.4,603.1,171.7,602.8,171.4z"/>
	<path class="st4" d="M972.1,258.5c2.2,0.9,4.5,5.6,5.9,7.7c11.9,18.2,21.9,37.5,30,57.6c31.2,78.1,30.7,165-2.6,242.4
		c-10.6,24.7-25,50.2-42.4,70.7l-23.6-0.1l-76.4,0l-24.8,0c-4.9,0-9.8,0.3-14.6-0.3c10.4-10.3,18.3-23.7,25.7-36.3
		c3-6.8,7-13.3,9.5-20.3c0.5-1.5,1.9-6.8,3-7.6c2-1.4,5.6-2.4,7.8-3.3l13.5-6.2c18.2-8.9,34.5-20.5,48-35.6
		c3.5-3.9,6.6-8.4,9.7-12.6c3,1.2,5.8,4.1,8.1,6.3c7.8,7.4,14.2,15.3,20.4,24c0.3-5,0.7-10,0-15c-1.8-13.9-9.7-24.4-20.7-32.6
		l5.6-16.8l24,9c7.6,2.8,17.3,10.1,25.5,6.4c1.8-0.8,3.2-2.3,4.5-3.8l0.7-2.3c0.9-3.7,1.2-6.9-1.1-10.3c-1-1.6-2.7-3-4.4-4
		c-3.5-2.1-7.7-3.4-11.4-5.1c-7.6-3.5-15.1-7.4-23-10.1c-4.8-1.6-9.9-2.6-14.9-3.8l-0.1-10.1l23.6,0l20.6-0.8c1.8-0.1,5.4,0.2,7-0.4
		c2.5-1,5-3.7,6.9-5.6c0.7-3.6,0.8-6.4-0.1-10c-0.8-1.3-1.6-2.6-2.6-3.7c-5.6-5.6-18.8-3.4-26-3.2l-34.5,2.1l-5.3-29.4l-3.6-14.5
		c-0.5-1.8-1.6-4.4-1.7-6.1c0-0.7,0.9-2.3,1.2-3l3.9-9l11.3-33.5c5.9-15.5,10.3-32.9,13.3-49.1C968.6,273.1,971.3,265.8,972.1,258.5
		z"/>
	<path class="st9" d="M968,280.3c3.6,5,6.3,10.7,9.2,16.2c6,11.5,11.8,23.2,16.1,35.4l-38.5-2.5C960.6,313.9,965,296.5,968,280.3z"
		/>
	<path class="st9" d="M975.2,343.9c3.3-0.2,7-0.3,10.2,0.6l0.8,0.2c2.5,0.7,4.7,1.7,6.9,3c8.3,5.1,11,16.3,13.1,25.1
		c-6.3,5.5-12,11-19.6,14.9l-3.2,0.8c-5.8,1.3-12.7,0.2-17.7-3c-4.8-3-8.3-7.9-9.4-13.5l-0.1-0.7c-1.3-6.3-0.2-12.3,3.4-17.7
		C963.4,347.8,968.4,345.2,975.2,343.9z"/>
	<path class="st9" d="M849.2,600.2l0.6-0.1c3.8-0.4,7.4-1.6,11.1-2.5l20.3-6c32.9-11.3,63.7-25.3,92.6-44.7
		c10-6.7,19.3-13.3,27.9-21.7c-8.3,34.8-26.5,68.2-48.7,96.1l-13.6,15.5l-76.4,0l-24.8,0c-4.9,0-9.8,0.3-14.6-0.3
		C834,626.2,841.9,612.8,849.2,600.2z"/>
	<path class="st4" d="M482.9,258.9l4.4,25.3c1,8.8,3.3,17.8,5.6,26.4c2.2,8.4,4.5,17.1,7.7,25.3c4.6,12.2,9,25.5,16.1,36.5
		c-5.3,18.4-10.1,37.7-12.2,56.8c-10.2-2.9-47.9-10.3-56.1-6l-0.8,0.4c-2.9,1.6-5,3.7-6,6.9c-0.8,2.8-0.2,6.2,1.2,8.7
		c1.3,2.3,3.9,4.9,6.6,5.4l52.3,2.7l-1.2,13.4c-10.1,2.5-43.8,11.6-48.6,19.6c-1.7,2.8-2.1,6.1-1.3,9.3c0.7,3,2.6,5.7,5.4,7.3
		c2.6,1.5,6.5,2,9.3,1c4-1.4,7.7-4.4,11.5-6.5c8.2-4.4,16.5-8.3,25.2-11.4c1.4,4.2,2.6,8.6,4.9,12.3c-8.6,8.7-16.7,17-22.6,27.9
		c-1.7,3-3.7,7-3.7,10.5c0,2.1,1.2,3.6,2.7,4.9c1.6,1.3,2.9,1.8,4.9,1.5c2.3-0.3,4.2-1.6,5.6-3.4c5.2-7.1,9.7-14.8,15.9-21.2
		c1.6-1.6,3.2-3.6,5.1-4.8c13.6,25.7,37.2,45,62.6,58.4c1.9,1,14.6,6.5,15.5,7.8c0.7,1,1.2,3.5,1.6,4.7l3.9,10.5
		c2.3,5.6,5.1,11,7.9,16.4C612.4,616,619.3,628,628,637l-31.8,0l-59.7,0l-29.7,0.1c-4.3,0-10.9,0.9-15-0.3l-0.7-0.5
		c-1.5-1.3-2.8-3.5-4-5l-9.2-12.8c-29.2-42.4-45.9-92.9-52.4-143.7c-1.9-14.6-2.1-29.5-1.6-44.3c1.6-47.2,13.4-92.6,35.5-134.3
		C466.1,283.4,474,270.3,482.9,258.9z"/>
	<path class="st9" d="M487.3,284.2c1,8.8,3.3,17.8,5.6,26.4c2.2,8.4,4.5,17.1,7.7,25.3l-38.3-1.3c5.1-12.3,10.4-24.6,16.7-36.3
		c1.7-3.1,3.6-6.2,5.6-9.1c0.9-1.3,2.3-2.5,2.6-4.1L487.3,284.2z"/>
	<path class="st9" d="M469.8,344.4c5.6-0.6,11.4,0.7,16.2,3.8c4.8,3.1,8.5,9,9.6,14.6c1.1,5.5-0.8,11.7-4,16.2
		c-3.8,5.3-9.9,7.9-16.1,9c-9.8,0.4-19.3-5.8-26.5-12c0-2.6,0.7-5.2,1.3-7.7c1.3-5.6,2.7-11.6,6-16.4
		C459.5,347.3,464.4,345.4,469.8,344.4z"/>
	<path class="st9" d="M491.8,636.7l23.1-0.1c-18.3-22-34.1-45-45.7-71.3c-4.6-10.5-8.3-21.5-11.9-32.4c9.7,8.5,20.1,15.7,30.9,22.8
		c29.4,19.3,61.3,34.3,95.1,44.1c6.9,2,15.2,5.1,22.4,5.4l0.4,0C612.4,616,619.3,628,628,637l-31.8,0l-59.7,0l-29.7,0.1
		C502.5,637.1,495.9,638,491.8,636.7z"/>
	<path class="st2" d="M515.8,430.7l0.3,0.1c1-0.5,1.1-3.3,1.3-4.5c4.8-22,9.5-43.5,17.8-64.5c9.6-24.3,25.5-48.4,46-64.9
		c13.2-10.6,29.2-19.1,44.7-25.8c16.8-7.2,34.9-11.9,52.9-15c11.1-1.9,22.2-3.8,33.5-4.5c24.7-1.4,49.1,1.3,73.2,6.5
		c14.4,3.1,29,7,42.7,12.5c32.1,12.8,57,32.2,76.4,60.9c5.1,7.5,10.2,15.1,13.7,23.6c0.4,0.8,0.5,0.7,1.2,1.1c2.8,6,4.8,13,6.7,19.3
		c5.4,17.6,9.6,36,12,54.3l-4.9,0.3l-9.4,0.5l0.5,0.5c2,2.1,3.5,5.6,5.7,7.2l0.1,6c3.8,1.6,7.9,2.3,11.6,3.8l1,8.5l-5.4-0.8
		l-0.8-0.1c-11.6-2.1-18.5-10.2-28.3-15.7c5.6,10.7,11.1,19,20.6,26.7c-0.8,0.5-0.8,0.3-1.2,1.2c-0.9,1.4-1.4,2.2-1.1,3.9
		c0.5,3,3.7,5.4,6.2,6.8c2.6,1.5,5.1,1,8,1.3c-0.8,3.8-1.3,9.2-3.4,12.5c-5.1-1.5-10.8-9-14.3-12.9c-0.8,8.1-3,14.8-6.4,22.2
		c0.4-14.1,4.8-26.8-3.2-39.9c-1.8-3-4.5-5.7-8.1-6.5c-3.3-0.7-6.5,0.4-9.2,2.4c-8.8,6.6-7.9,17.9-8.4,27.6
		c-0.2,3.4-0.8,6.9-1.3,10.3c-1.2-7-2.5-15.8-7-21.4c-2.4-2.9-6-5.4-9.8-5.7c-4.1-0.3-7.7,1.8-10.7,4.4
		c-7.6,6.6-12.4,17.4-13.2,27.3c-0.7,9.5,1.9,20.1,8.3,27.4c7.3,8.4,15.4,10.5,26.2,11.2c-22,10.5-45.7,17.2-68.3,26.2
		c-18,7.2-35.7,15.6-52.4,25.4l-32.3,20.8c-4.2-1.5-9.1-5.9-13-8.3l-19.9-11.7c-26.4-14.4-54.2-27.2-83.1-35.7
		c-9-2.7-18.3-4.6-27.5-6.6c8.6-4.9,15.9-9.8,21-18.6c4.7-8.1,7-19,4.5-28.1c-0.8-2.9-1.7-5.7-2.9-8.5c-3.9-8.3-10.4-14.7-19.2-17.7
		c-14.9-5-27.7,0.9-40.8,7.6c0.4-1.3,2.1-3.1,2.9-4.2l10.1-13.2c1.4-1.9,3.4-3.8,4.1-6c0.4-1.2,0.8-1.5,1.8-2.2l0.5-1.2
		c-5.1-9.7-39-20-49.9-23.9C515.4,432,515.4,431.9,515.8,430.7z"/>
	<path class="st0" d="M721.7,431.4c12.1-0.9,24.4,1.9,34.6,8.6c3.3,2.2,6.6,4.8,7.2,9c0.3,1.9-0.3,4.2-0.8,6
		c-1.9,6.7-5.6,13.8-10.1,19.2c-6.2,7.5-13.6,11.3-23.1,12.4c-8.8,0.1-16.5-2-23.8-6.9c-8.2-5.5-15.9-14.2-17.8-24.1
		c-0.7-3.6-0.7-6.8,1.6-9.8c1.7-2.2,4.4-4,6.8-5.4C704.2,435.4,712.5,432.7,721.7,431.4z"/>
	<path class="st2" d="M734.2,443c2.9-1.3,7.2-0.3,10.2,0.8c3.3,1.2,7.9,3.6,9.8,6.8c-3.5,7.6-9.2,17.3-17.3,20.6
		c-1.2,0.5-2.2,0.6-3.5,0.6c-0.8-0.4-1.3-0.4-1.6-1.3c-0.6-1.6-0.4-4.4,0.7-5.8c0.7-1,2.3-1.5,3.4-2c4-1.9,7.9-4.8,9.1-9.3l0.5-0.2
		c0.8-0.6,0.9-1.4,1-2.3C744.2,446.8,738.4,444.5,734.2,443z"/>
	<path class="st1" d="M720.4,443c4.6-0.5,9.2-0.7,13.7-0.1c4.2,1.6,10,3.8,12.3,7.9c-0.2,0.9-0.2,1.7-1,2.3l-0.5,0.2
		c-2.8-1.7-5.5-2-8.6-2.5c-8.7-1.3-17.7-0.4-26.3,1.5c-0.9-0.2-1.8-0.4-2.6-0.8l-0.4-0.2c-1,1.2-2.5,2.6-4.1,2.8
		c-0.9,0.2-1.4-0.6-2-1.2l0-1c2-1.6,3.9-0.9,5.6-1.9c0.9-0.5,2-2.5,2.9-3.3C711.8,444.8,717.3,443.9,720.4,443z"/>
	<path class="st2" d="M710,452.4c-0.1,4.1,1.4,8.1,5.5,9.8c2.6,1.1,4.9,1.5,6.7,3.7c0.2,1.9,0.2,2.9-0.6,4.6
		c-1.1,0.9-1.4,1.5-2.9,1.3c-4.8-0.7-17.9-10.2-20.4-14.4c-1-1.7-1.7-3.7-1.1-5.7c0.8-2.7,5.3-4.6,7.8-5.7
		c4.2-1.8,11.1-4.6,15.5-2.9c-3.1,0.9-8.6,1.7-10.9,3.9c-0.8,0.8-2,2.8-2.9,3.3c-1.7,1-3.7,0.3-5.6,1.9l0,1c0.7,0.6,1.1,1.4,2,1.2
		c1.6-0.3,3.1-1.6,4.1-2.8l0.4,0.2C708.3,452,709.1,452.2,710,452.4z"/>
	<path class="st0" d="M803,477.7l3.1,3.7c7.6,9.5,12.3,20.2,10.8,32.6c-1.4,11.4-7.9,21-16.9,27.9c-10.6,8.1-23.8,10.5-36.8,8.7
		c-14.9-2.1-27.5-11.2-36.3-22.9c-6.8,10-16.2,16.9-27.6,20.8c-13.2,4.5-27.3,3.8-39.8-2.4c-9.7-4.8-17.7-13.3-21.1-23.7
		c-3.8-11.4-1.9-20.7,3.4-31.2c2.3-4.3,5.6-8,8.8-11.7l-2.5,5.9c-3.9,9.8-5.1,22.1-0.7,31.9c3.9,8.6,10.8,14.1,19.5,17.4
		c10.3,3.9,22.4,3.2,32.4-1.4c12.8-5.9,23.8-17.8,28.8-31l2,5.4c5.5,12.2,15.5,22,28.1,26.7c10,3.7,22.2,3.7,31.9-0.8
		c8.1-3.8,14.3-10.9,17.3-19.3C811.7,501.8,808.5,489.3,803,477.7z"/>
	<path class="st0" d="M832.2,343.5c15.5-0.9,30.9,4,42.9,14c11.5,9.5,19.7,24.4,21.1,39.3c1.5,15.9-3.3,31-13.4,43.3
		c-10.8,13.1-24.4,19.6-41.1,21.1c-16.2,0.4-30.5-4.4-43.2-14.5c-11.5-9.2-20.1-24-21.5-38.8c-1.6-15.8,2.7-30.4,12.8-42.7
		C800.2,352.2,815.8,345.2,832.2,343.5z"/>
	<path class="st1" d="M849.7,395.5l4.8,0.1c2.2,0.3,4,1.6,5.3,3.3c1.4,1.9,2,4.2,1.5,6.6c-0.8,3.4-3.8,5.4-6.6,7
		c-1.7,0.3-3.3,0.5-5,0.1c-2.1-0.4-4-2.1-5.1-3.8c-1.4-2.2-2-4.9-1.2-7.4C844.3,398.3,847,396.8,849.7,395.5z"/>
	<path class="st1" d="M809.9,361.1c3.3-0.4,6.8-0.4,9.9,1c4,1.8,6.8,5.3,8.4,9.3c1.6,4.2,1.1,8.5-0.9,12.6
		c-2.3,4.7-6.5,7.7-11.3,9.4c-3,0.4-6.2,0.2-9.1-0.9c-3.9-1.4-7.2-4.2-8.9-8.1c-1.9-4.3-1.7-9.2,0.1-13.4
		C800.4,365.7,804.8,363.2,809.9,361.1z"/>
	<path class="st4" d="M856.1,356.2l5.3,2.4c11.5,6.6,19.9,17.8,23.4,30.6c3.7,13.7,2.3,26.6-4.8,38.8c-6.6,11.4-17,19.8-29.8,23.1
		c-13.6,3.5-27.6,0.9-39.6-6.3c-12.3-7.3-20.8-18.8-24.3-32.6c-1.4-6.8-1.6-14.9,0.2-21.6c1.3-4.8,3.1-10,5.8-14.3
		c0.5-0.8,1.3-2.3,2.1-2.7c-0.9,4.2-2.2,8.6-2,12.9c0.6,11.6,5,22.8,13.8,30.6c8.5,7.5,19.5,11.1,30.8,10.3c10.4-0.7,19.3-5.1,26-13
		c6.2-7.2,9.7-18.6,8.9-28.1C870.9,373.5,865.9,364.4,856.1,356.2z"/>
	<path class="st0" d="M613.1,343.5c14.8-1,32.1,5.8,43.4,15.1c11.9,9.9,19.5,24.1,20.9,39.5c1.5,15.6-3.8,30.8-13.7,42.8
		c-10.5,12.7-26.2,18.9-42.2,20.3c-15.8,0.3-30.9-3.8-43.3-13.9c-12.6-10.3-20.9-25.9-22.3-42.1c-1.2-14.6,3.5-29.6,13-40.7
		C580.8,350.5,595.1,344.9,613.1,343.5z"/>
	<path class="st1" d="M603.1,397.9c2,0,3.9,0.2,5.7,1.1c2.2,1.1,4.2,3.6,4.8,6c0.7,2.8,0.7,5.9-1,8.4c-1.7,2.6-4.2,3.5-7,4.2
		c-1.9-0.1-4.2-0.2-5.9-1c-2.1-1.1-4.1-3.5-4.8-5.8c-0.8-2.6-0.3-5.8,1.1-8.2C597.7,399.7,600.1,398.8,603.1,397.9z"/>
	<path class="st1" d="M636.1,360.7c3.3,0,6,0.4,9,1.8c5,2.3,9.4,6.6,11.2,11.9c1.3,4,0.5,8.5-1.5,12.1c-2.9,5.2-7.8,7.8-13.3,9.3
		c-4.5,0.5-8.7-0.1-12.6-2.5c-4.1-2.6-7-6.7-8.1-11.4c-1-4.5,0-9.5,2.5-13.3C626.3,363.9,630.9,361.7,636.1,360.7z"/>
	<path class="st4" d="M596.6,357.3h1.5c-4.4,3.9-8.2,7.9-11.2,13c-5.7,9.8-6.9,21.2-3.9,32.1c2.4,8.7,7.4,16.4,15.4,20.9
		c9.5,5.3,22.3,5.8,32.5,2.7c10.8-3.3,20.6-11.3,25.9-21.2c3.2-5.9,5.4-13.8,4.9-20.5c-0.3-3.8-1.4-7.5-2.5-11.1
		c8,10.3,10.3,22.9,9.5,35.7c-1.4,8.7-4.2,16.3-9.4,23.5c-7.8,10.8-19.9,17.4-33,19.3c-13.8,2-28.5-1.8-39.5-10.2
		c-10.9-8.3-18.4-20.8-20.3-34.4c-1.3-9.2,0.2-17.3,3.7-25.7C575.4,368.6,584.3,362.3,596.6,357.3z"/>
</g>
</svg>
